<?xml version="1.0" standalone="no"?>
<!DOCTYPE svg PUBLIC "-//W3C//DTD SVG 20010904//EN"
 "http://www.w3.org/TR/2001/REC-SVG-20010904/DTD/svg10.dtd">
<svg version="1.0" xmlns="http://www.w3.org/2000/svg"
 width="180.000000pt" height="159.000000pt" viewBox="0 0 180.000000 159.000000"
 preserveAspectRatio="xMidYMid meet">

<g transform="translate(0.000000,159.000000) scale(0.100000,-0.100000)"
fill="#000000" stroke="none">
<path d="M985 1564 c-104 -21 -222 -44 -555 -108 -41 -8 -102 -20 -135 -27
-33 -7 -70 -13 -81 -14 -12 -2 -31 -8 -42 -14 -11 -6 -32 -11 -46 -11 -34 0
-92 -53 -107 -98 -19 -56 -14 -153 10 -208 12 -25 21 -54 21 -63 0 -14 2 -14
10 -1 5 8 10 24 10 35 0 28 53 135 80 163 15 16 26 20 33 13 7 -7 1 -20 -18
-43 -36 -42 -61 -103 -75 -176 -9 -52 -8 -66 11 -118 30 -79 35 -83 42 -30 10
70 75 186 104 186 20 0 15 -19 -14 -54 -33 -39 -51 -83 -68 -164 -13 -61 -12
-68 9 -126 l23 -61 12 54 c20 95 88 198 113 173 8 -8 3 -20 -19 -46 -34 -38
-71 -126 -80 -192 -4 -32 1 -61 23 -120 l28 -77 11 54 c15 80 78 189 107 189
17 0 7 -32 -17 -58 -32 -34 -65 -121 -72 -188 -5 -44 1 -69 47 -190 68 -184
87 -216 130 -230 28 -9 42 -9 69 2 18 8 50 14 70 14 34 0 141 19 221 40 37 9
113 27 240 55 140 30 331 73 530 118 36 9 91 20 122 27 31 6 59 17 61 23 4 12
-83 151 -90 143 -2 -2 5 -27 16 -57 11 -29 20 -53 18 -54 -1 -1 -263 -62 -582
-135 -319 -73 -592 -139 -606 -146 -54 -27 -110 32 -117 125 -7 104 33 181 94
181 20 0 44 5 55 11 11 5 262 64 557 129 295 66 556 125 580 132 83 24 91 10
-422 743 -50 72 -102 147 -116 167 -25 37 -40 48 -40 28 0 -5 -9 -10 -20 -10
-22 0 -28 25 -7 33 23 10 -8 5 -128 -19z m111 -13 c5 -5 17 -11 26 -13 10 -1
137 -178 283 -392 217 -318 263 -391 250 -398 -8 -5 -15 -20 -15 -33 0 -13 -3
-26 -7 -28 -5 -3 -218 -51 -476 -107 -425 -93 -469 -101 -485 -87 -9 8 -26 17
-36 18 -15 3 -55 93 -187 423 -143 358 -165 421 -153 431 8 6 16 19 18 30 3
24 -17 19 396 99 344 67 370 71 386 57z m-798 -158 c-2 -10 -12 -18 -23 -18
-11 0 -21 8 -23 18 -3 13 3 17 23 17 20 0 26 -4 23 -17z m-44 -59 c3 -8 2 -12
-4 -9 -6 3 -10 10 -10 16 0 14 7 11 14 -7z m1466 -613 c0 -17 -30 -32 -50 -26
-24 8 -26 31 -3 44 18 10 53 -2 53 -18z m-1061 -235 c9 -10 8 -16 -4 -26 -17
-14 -45 -7 -45 13 0 29 30 37 49 13z m8 -62 c-3 -3 -12 -4 -19 -1 -8 3 -5 6 6
6 11 1 17 -2 13 -5z"/>
<path d="M760 1489 c-162 -32 -324 -64 -360 -70 -60 -11 -66 -14 -82 -46 l-17
-35 163 -407 c129 -324 166 -407 181 -409 11 -2 27 -10 35 -17 13 -12 83 1
445 81 237 52 445 98 464 102 26 6 35 13 36 31 1 12 8 27 15 31 11 7 8 16 -12
47 -14 21 -129 191 -256 378 -175 257 -240 344 -264 357 -18 9 -37 17 -43 17
-5 0 -143 -27 -305 -60z"/>
</g>
</svg>
